<?xml version="1.0" standalone="no"?>
<!DOCTYPE svg PUBLIC "-//W3C//DTD SVG 20010904//EN"
 "http://www.w3.org/TR/2001/REC-SVG-20010904/DTD/svg10.dtd">
<svg version="1.0" xmlns="http://www.w3.org/2000/svg"
 width="512.000000pt" height="512.000000pt" viewBox="0 0 512.000000 512.000000"
 preserveAspectRatio="xMidYMid meet">
<metadata>
Created by potrace 1.11, written by Peter Selinger 2001-2013
</metadata>
<g transform="translate(0.000000,512.000000) scale(0.100000,-0.100000)"
fill="#000000" stroke="none">
<path d="M2335 4691 c-3 -11 -10 -43 -15 -73 -5 -29 -23 -127 -40 -218 -17
-91 -35 -189 -41 -217 -5 -29 -13 -77 -19 -105 -5 -29 -27 -150 -49 -268 -22
-118 -50 -267 -61 -330 -12 -63 -26 -121 -32 -127 -6 -7 -24 -13 -40 -13 -16
0 -48 -4 -71 -9 -23 -5 -80 -14 -127 -21 -47 -6 -110 -15 -140 -20 -30 -5 -91
-14 -135 -20 -44 -6 -105 -15 -135 -20 -30 -5 -91 -14 -135 -20 -44 -6 -105
-15 -135 -20 -30 -5 -91 -14 -135 -20 -87 -12 -178 -25 -283 -40 -75 -11 -182
-26 -254 -35 -27 -3 -48 -10 -48 -15 0 -8 281 -150 295 -150 3 0 57 -25 120
-55 64 -30 118 -55 120 -55 2 0 55 -24 117 -54 62 -29 136 -63 163 -76 28 -12
86 -39 130 -60 44 -21 103 -48 130 -60 28 -12 86 -39 130 -60 74 -35 144 -67
222 -101 18 -7 34 -18 37 -24 4 -10 -2 -53 -24 -165 -5 -30 -14 -80 -20 -110
-5 -30 -14 -80 -20 -110 -5 -30 -14 -80 -20 -110 -5 -30 -14 -80 -20 -110 -5
-30 -15 -82 -20 -115 -6 -33 -15 -85 -20 -115 -13 -69 -25 -136 -39 -220 -6
-36 -16 -90 -21 -120 -5 -30 -15 -84 -21 -120 -6 -36 -15 -90 -20 -120 -5 -30
-13 -77 -18 -105 -14 -70 -13 -95 2 -95 7 0 20 8 28 17 21 24 627 612 713 693
39 36 122 115 185 176 64 60 145 137 181 170 35 32 77 71 91 87 33 33 33 33
95 3 27 -13 72 -34 99 -46 28 -12 74 -33 103 -46 28 -13 78 -36 110 -50 31
-14 84 -39 117 -54 33 -15 80 -37 105 -48 25 -11 86 -39 135 -62 50 -23 110
-51 135 -62 25 -11 72 -33 105 -48 33 -15 83 -38 110 -50 28 -13 92 -42 143
-66 52 -24 96 -44 98 -44 2 0 41 -17 86 -39 175 -82 208 -94 208 -74 0 7 -65
117 -132 223 -22 36 -53 85 -68 110 -15 25 -65 106 -110 180 -46 74 -113 185
-150 245 -37 61 -91 148 -120 195 -29 47 -79 128 -110 180 -107 177 -143 235
-161 262 l-19 26 137 134 c76 74 169 163 207 199 39 35 135 127 215 205 81 77
175 167 211 200 123 113 320 311 320 321 0 9 -100 0 -270 -27 -41 -6 -100 -15
-130 -20 -30 -5 -89 -14 -130 -20 -41 -6 -100 -15 -130 -20 -102 -16 -205 -32
-267 -41 -60 -9 -119 -18 -255 -39 -35 -5 -94 -14 -133 -20 -38 -5 -99 -14
-135 -20 -158 -25 -152 -26 -178 15 -13 20 -32 52 -42 70 -10 19 -34 58 -53
87 -19 29 -58 91 -87 138 -29 47 -68 109 -87 137 -18 29 -33 55 -33 58 0 3
-20 36 -43 73 -24 37 -63 99 -87 137 -24 39 -58 94 -77 122 -18 29 -33 55 -33
58 0 2 -22 39 -50 82 -27 43 -68 108 -92 145 -24 38 -46 68 -50 68 -4 0 -9 -9
-13 -19z m575 -1242 c359 -73 609 -391 578 -736 -9 -105 -20 -146 -65 -238
-45 -93 -105 -168 -184 -232 -77 -64 -222 -136 -304 -153 -33 -7 -76 -16 -95
-21 -45 -11 -215 -11 -260 0 -19 5 -62 14 -95 21 -82 17 -227 89 -304 153 -79
64 -139 139 -184 232 -45 92 -56 133 -65 238 -12 129 7 224 69 353 86 179 284
334 485 379 168 38 254 38 424 4z"/>
<path d="M3160 3060 c-30 -23 -53 -25 -83 -5 -23 15 -19 15 -212 -14 -166 -25
-335 -51 -376 -57 -24 -3 -55 -13 -68 -21 -24 -16 -24 -15 -9 -118 5 -31 -43
-49 -90 -34 -20 7 -41 16 -47 19 -24 15 -125 43 -131 37 -7 -7 6 -115 27 -236
5 -30 9 -69 9 -87 0 -84 23 -83 126 2 43 36 87 70 97 76 27 14 57 0 57 -26 0
-31 25 -89 45 -106 13 -11 31 -11 98 -1 45 7 114 17 152 22 39 6 97 14 130 19
70 11 196 29 241 36 63 9 64 24 24 218 -25 126 -22 136 40 117 22 -6 45 -9 51
-6 18 12 -21 179 -42 182 -8 2 -25 -6 -39 -17z"/>
</g>
</svg>
